<svg style="position: absolute; width: 0; height: 0;" width="0" height="0" version="1.1" xmlns="http://www.w3.org/2000/svg" xmlns:xlink="http://www.w3.org/1999/xlink">
<defs>
<symbol id="simicon-stack-overflow" viewBox="0 0 805 1024">
	<title>stack-overflow</title>
	<path class="path1" d="M0 1023.429v-420.571h69.143v353.143h530.286v-353.143h68.571v400.571l-0.571 20v0.571l-667.429-0.571zM126.286 887.429v-86.286l404-0.571v86.286zM129.714 738.857l8-85.714 402.286 37.143-7.429 85.714zM154.286 556l22.286-83.429 390.286 104.571-22.286 83.429zM225.714 347.429l44-74.286 348 205.714-44 74.286zM404 133.143l71.429-49.143 227.429 334.286-70.857 48.571zM649.143 14.857l85.143-14.857 69.143 398.286-85.143 14.857z"></path>
</symbol>
<symbol id="simicon-eye" viewBox="0 0 1024 1024">
	<title>eye</title>
	<path class="path1" d="M0 548.571q0-19.429 11.429-39.429 80-130.857 215.143-210.286t285.429-79.429 285.429 79.429 215.143 210.286q11.429 20 11.429 39.429t-11.429 39.429q-80 131.429-215.143 210.571t-285.429 79.143-285.429-79.429-215.143-210.286q-11.429-20-11.429-39.429zM73.143 548.571q76 117.143 190.571 186.571t248.286 69.429 248.286-69.429 190.571-186.571q-86.857-134.857-217.714-201.714 34.857 59.429 34.857 128.571 0 105.714-75.143 180.857t-180.857 75.143-180.857-75.143-75.143-180.857q0-69.143 34.857-128.571-130.857 66.857-217.714 201.714zM338.286 475.429q0 11.429 8 19.429t19.429 8 19.429-8 8-19.429q0-49.143 34.857-84t84-34.857q11.429 0 19.429-8t8-19.429-8-19.429-19.429-8q-71.429 0-122.571 51.143t-51.143 122.571z"></path>
</symbol>
<symbol id="simicon-link" viewBox="0 0 1024 1024">
	<title>link</title>
	<path class="path1" d="M725.333 42.667q50.333 0 97.167 19t83.833 56 56 83.833 19 97.167q0 50-19.167 97.167t-55.833 83.833l-128 128q-3.667 3.667-11 10.333-35.667 31.667-79.667 48.167t-90.333 16.5q-58.333 0-110.333-25-39-18.333-70.667-50t-50-70.667q25-25 60.333-25 12.333 0 25 3.667 21.667 35 56.667 56.667 41 25 89 25 33.333 0 64.667-12.667t56-37.333l128-128q24.667-24.667 37.333-56t12.667-64.667-12.667-64.667-37.333-56-56-37.333-64.667-12.667-64.667 12.667-56 37.333l-89.667 89.667q-42.667-11.667-88.333-11.667-7.333 0-20.667 0.667 6.667-7.333 10.333-11l128-128q36.667-36.667 83.833-55.833t97.167-19.167zM426.667 341.333q58.333 0 110.333 25 39 18.333 70.667 50t50 70.667q-25 25-60.333 25-12.333 0-25-3.667-21.667-35-56.667-56.667-41-25-89-25-33.333 0-64.667 12.667t-56 37.333l-128 128q-24.667 24.667-37.333 56t-12.667 64.667 12.667 64.667 37.333 56 56 37.333 64.667 12.667 64.667-12.667 56-37.333l89.667-89.667q42.667 11.667 88.333 11.667 7.333 0 20.667-0.667-6.667 7.333-10.333 11l-128 128q-37 37-83.833 56t-97.167 19q-50 0-97.167-19.167t-83.833-55.833q-37-37-56-83.833t-19-97.167 19-97.167 56-83.833l128-128q3.667-3.667 11-10.333 35.667-31.667 79.667-48.167t90.333-16.5z"></path>
</symbol>
<symbol id="simicon-speech-bubble" viewBox="0 0 1024 1024">
	<title>speech-bubble</title>
	<path class="path1" d="M170.667 42.667h682.667q53 0 90.5 37.5t37.5 90.5v469.333q0 53-37.5 90.5t-90.5 37.5h-341.333l-298.667 213.333v-213.333h-42.667q-53 0-90.5-37.5t-37.5-90.5v-469.333q0-53 37.5-90.5t90.5-37.5zM853.333 128h-682.667q-17.667 0-30.167 12.5t-12.5 30.167v469.333q0 17.667 12.5 30.167t30.167 12.5h128v133l186-133h368.667q17.667 0 30.167-12.5t12.5-30.167v-469.333q0-17.667-12.5-30.167t-30.167-12.5z"></path>
</symbol>
<symbol id="simicon-anchor" viewBox="0 0 1024 1024">
	<title>anchor</title>
	<path class="path1" d="M512 42.667q70.667 0 120.667 50t50 120.667q0 59-36 104.833t-92 60.167v515.333q71-8 134.167-41.167t108.667-83.5 72-117.333 26.5-139.667q0-17.667 12.5-30.167t30.167-12.5 30.167 12.5 12.5 30.167q0 95.667-37.167 182.5t-100 149.667-149.667 100-182.5 37.167-182.5-37.167-149.667-100-100-149.667-37.167-182.5q0-17.667 12.5-30.167t30.167-12.5 30.167 12.5 12.5 30.167q0 72.667 26.5 139.667t72 117.333 108.667 83.5 134.167 41.167v-515.333q-56-14.333-92-60.167t-36-104.833q0-70.667 50-120.667t120.667-50zM512 128q-35.333 0-60.333 25t-25 60.333 25 60.333 60.333 25 60.333-25 25-60.333-25-60.333-60.333-25z"></path>
</symbol>
<symbol id="simicon-arrow-left" viewBox="0 0 1024 1024">
	<title>arrow-left</title>
	<path class="path1" d="M426.667 170.667q17.667 0 30.167 12.5t12.5 30.167q0 18-12.667 30.333l-225.667 225.667h665q17.667 0 30.167 12.5t12.5 30.167-12.5 30.167-30.167 12.5h-665l225.667 225.667q12.667 12.333 12.667 30.333 0 17.667-12.5 30.167t-30.167 12.5q-18 0-30.333-12.333l-298.667-298.667q-12.333-13-12.333-30.333t12.333-30.333l298.667-298.667q12.667-12.333 30.333-12.333z"></path>
</symbol>
<symbol id="simicon-arrow-right" viewBox="0 0 1024 1024">
	<title>arrow-right</title>
	<path class="path1" d="M597.333 170.667q18 0 30.333 12.333l298.667 298.667q12.333 12.333 12.333 30.333t-12.333 30.333l-298.667 298.667q-12.333 12.333-30.333 12.333-18.333 0-30.5-12.167t-12.167-30.5q0-18 12.333-30.333l226-225.667h-665q-17.667 0-30.167-12.5t-12.5-30.167 12.5-30.167 30.167-12.5h665l-226-225.667q-12.333-12.333-12.333-30.333 0-18.333 12.167-30.5t30.5-12.167z"></path>
</symbol>
<symbol id="simicon-arrow-up" viewBox="0 0 1024 1024">
	<title>arrow-up</title>
	<path class="path1" d="M512 85.333q18 0 30.333 12.333l298.667 298.667q12.333 12.333 12.333 30.333 0 18.333-12.167 30.5t-30.5 12.167q-18 0-30.333-12.333l-225.667-226v665q0 17.667-12.5 30.167t-30.167 12.5-30.167-12.5-12.5-30.167v-665l-225.667 226q-12.333 12.333-30.333 12.333-18.333 0-30.5-12.167t-12.167-30.5q0-18 12.333-30.333l298.667-298.667q12.333-12.333 30.333-12.333z"></path>
</symbol>
<symbol id="simicon-arrow-down" viewBox="0 0 1024 1024">
	<title>arrow-down</title>
	<path class="path1" d="M512 85.333q17.667 0 30.167 12.5t12.5 30.167v665l225.667-226q12.333-12.333 30.333-12.333 18.333 0 30.5 12.167t12.167 30.5q0 18-12.333 30.333l-298.667 298.667q-12.333 12.333-30.333 12.333t-30.333-12.333l-298.667-298.667q-12.333-12.333-12.333-30.333 0-18.333 12.167-30.5t30.5-12.167q18 0 30.333 12.333l225.667 226v-665q0-17.667 12.5-30.167t30.167-12.5z"></path>
</symbol>
<symbol id="simicon-plus" viewBox="0 0 1024 1024">
	<title>plus</title>
	<path class="path1" d="M512 85.333q17.667 0 30.167 12.5t12.5 30.167v341.333h341.333q17.667 0 30.167 12.5t12.5 30.167-12.5 30.167-30.167 12.5h-341.333v341.333q0 17.667-12.5 30.167t-30.167 12.5-30.167-12.5-12.5-30.167v-341.333h-341.333q-17.667 0-30.167-12.5t-12.5-30.167 12.5-30.167 30.167-12.5h341.333v-341.333q0-17.667 12.5-30.167t30.167-12.5z"></path>
</symbol>
<symbol id="simicon-minus" viewBox="0 0 1024 1024">
	<title>minus</title>
	<path class="path1" d="M128 469.333h768q17.667 0 30.167 12.5t12.5 30.167-12.5 30.167-30.167 12.5h-768q-17.667 0-30.167-12.5t-12.5-30.167 12.5-30.167 30.167-12.5z"></path>
</symbol>
<symbol id="simicon-check" viewBox="0 0 1024 1024">
	<title>check</title>
	<path class="path1" d="M896 213.333q18.333 0 30.5 12.167t12.167 30.5q0 18-12.333 30.333l-512 512q-12.333 12.333-30.333 12.333t-30.333-12.333l-256-256q-12.333-12.333-12.333-30.333 0-18.333 12.167-30.5t30.5-12.167q18 0 30.333 12.333l225.667 226 481.667-482q12.333-12.333 30.333-12.333z"></path>
</symbol>
<symbol id="simicon-cross" viewBox="0 0 1024 1024">
	<title>cross</title>
	<path class="path1" d="M810.667 170.667q18.333 0 30.5 12.167t12.167 30.5q0 18-12.333 30.333l-268.667 268.333 268.667 268.333q12.333 12.333 12.333 30.333 0 18.333-12.167 30.5t-30.5 12.167q-18 0-30.333-12.333l-268.333-268.667-268.333 268.667q-12.333 12.333-30.333 12.333-18.333 0-30.5-12.167t-12.167-30.5q0-18 12.333-30.333l268.667-268.333-268.667-268.333q-12.333-12.333-12.333-30.333 0-18.333 12.167-30.5t30.5-12.167q18 0 30.333 12.333l268.333 268.667 268.333-268.667q12.333-12.333 30.333-12.333z"></path>
</symbol>
<symbol id="simicon-menu" viewBox="0 0 1024 1024">
	<title>menu</title>
	<path class="path1" d="M128 213.333h768q17.667 0 30.167 12.5t12.5 30.167-12.5 30.167-30.167 12.5h-768q-17.667 0-30.167-12.5t-12.5-30.167 12.5-30.167 30.167-12.5zM128 725.333h768q17.667 0 30.167 12.5t12.5 30.167-12.5 30.167-30.167 12.5h-768q-17.667 0-30.167-12.5t-12.5-30.167 12.5-30.167 30.167-12.5zM128 469.333h768q17.667 0 30.167 12.5t12.5 30.167-12.5 30.167-30.167 12.5h-768q-17.667 0-30.167-12.5t-12.5-30.167 12.5-30.167 30.167-12.5z"></path>
</symbol>
<symbol id="simicon-inbox" viewBox="0 0 1024 1024">
	<title>inbox</title>
	<path class="path1" d="M512 42.667q17.667 0 30.167 12.5t12.5 30.167v494.333l140.333-140.667q12.333-12.333 30.333-12.333 18.333 0 30.5 12.167t12.167 30.5q0 18-12.333 30.333l-213.333 213.333q-12.333 12.333-30.333 12.333t-30.333-12.333l-213.333-213.333q-12.333-13-12.333-30.333 0-17.667 12.5-30.167t30.167-12.5q18 0 30.333 12.333l140.333 140.667v-494.333q0-17.667 12.5-30.167t30.167-12.5zM938.667 640q17.667 0 30.167 12.5t12.5 30.167v170.667q0 53.333-37 90.333-37.667 37.667-90 37.667h-683.667q-52.333 0-90.667-37.333-37.333-38.333-37.333-90.667v-170.667q0-17.667 12.5-30.167t30.167-12.5 30.167 12.5 12.5 30.167v170.667q0 17.667 12.5 30.167t30.167 12.5h683.667q17.333 0 29.5-12.5t12.167-30.167v-170.667q0-17.667 12.5-30.167t30.167-12.5z"></path>
</symbol>
<symbol id="simicon-github" viewBox="0 0 1024 1024">
	<title>github</title>
	<path class="path1" d="M674.816 579.072c-36.762 0-66.56 41.267-66.56 92.109 0 50.893 29.798 92.16 66.56 92.16s66.56-41.267 66.56-92.16c-0.051-50.893-29.85-92.109-66.56-92.109zM906.547 339.251c7.578-18.688 7.936-124.928-32.461-226.611 0 0-92.774 10.138-233.062 106.445-29.44-8.141-79.258-12.186-129.024-12.186-49.818 0-99.584 4.096-129.075 12.186-140.237-96.307-232.96-106.445-232.96-106.445-40.397 101.683-40.090 207.923-32.461 226.611-47.514 51.61-76.544 113.562-76.544 198.195 0 367.923 305.254 373.811 382.31 373.811 17.459 0 52.173 0.051 88.781 0.102 36.608-0.051 71.322-0.102 88.678-0.102 77.107 0 382.31-5.888 382.31-373.811 0-84.634-28.979-146.586-76.493-198.195zM513.434 866.048h-2.816c-193.126 0-343.552-23.040-343.552-210.739 0-44.954 15.923-86.682 53.555-121.293 62.925-57.702 169.267-27.136 289.997-27.136 0.461 0 0.973 0 1.434-0.051 0.512 0 0.973 0.051 1.382 0.051 120.73 0 227.123-30.566 289.997 27.136 37.632 34.611 53.504 76.339 53.504 121.293 0 187.699-150.323 210.739-343.501 210.739zM349.235 579.072c-36.762 0-66.56 41.267-66.56 92.109 0 50.893 29.798 92.16 66.56 92.16s66.56-41.267 66.56-92.16c0-50.893-29.798-92.109-66.56-92.109z"></path>
</symbol>
<symbol id="simicon-twitter" viewBox="0 0 1024 1024">
	<title>twitter</title>
	<path class="path1" d="M983.040 219.802c-34.714 15.411-71.936 25.754-111.053 30.464 39.936-23.91 70.605-61.798 84.992-106.906-37.325 22.118-78.694 38.246-122.675 46.899-35.277-37.581-85.504-61.030-141.107-61.030-106.752 0-193.28 86.528-193.28 193.229 0 15.155 1.69 29.901 5.018 44.032-160.614-8.038-303.053-84.992-398.336-201.933-16.691 28.518-26.266 61.747-26.266 97.178 0 67.072 34.15 126.208 86.016 160.87-31.693-1.024-61.491-9.677-87.552-24.166 0 0.819 0 1.587 0 2.406 0 93.645 66.662 171.725 155.034 189.542-16.179 4.403-33.28 6.758-50.944 6.758-12.442 0-24.525-1.178-36.352-3.43 24.576 76.8 96 132.659 180.531 134.195-66.15 51.866-149.453 82.739-240.026 82.739-15.616 0-30.976-0.922-46.080-2.714 85.504 54.835 187.085 86.835 296.294 86.835 355.482 0 549.888-294.502 549.888-549.939 0-8.346-0.154-16.691-0.563-24.986 37.786-27.238 70.502-61.286 96.461-100.045z"></path>
</symbol>
<symbol id="simicon-codepen" viewBox="0 0 1024 1024">
	<title>codepen</title>
	<path class="path1" d="M988.828 361.265c-0.085-0.601-0.236-1.179-0.336-1.781-0.201-1.154-0.417-2.309-0.716-3.437-0.176-0.68-0.426-1.329-0.636-1.982-0.327-1.006-0.655-2.009-1.056-2.988-0.28-0.68-0.604-1.354-0.915-2.009-0.435-0.926-0.881-1.831-1.396-2.708-0.377-0.655-0.775-1.284-1.164-1.909-0.555-0.856-1.116-1.685-1.735-2.487-0.449-0.598-0.926-1.204-1.402-1.781-0.655-0.752-1.334-1.501-2.048-2.209-0.538-0.549-1.067-1.101-1.629-1.607-0.754-0.678-1.531-1.329-2.322-1.955-0.612-0.481-1.22-0.956-1.859-1.406-0.24-0.151-0.449-0.352-0.68-0.506l-436.186-290.787c-13.78-9.187-31.717-9.187-45.496 0l-436.183 290.785c-0.226 0.151-0.439 0.352-0.678 0.506-0.643 0.449-1.243 0.928-1.845 1.406-0.801 0.627-1.58 1.282-2.322 1.955-0.576 0.508-1.101 1.056-1.645 1.607-0.714 0.707-1.394 1.462-2.034 2.209-0.491 0.58-0.966 1.181-1.417 1.781-0.601 0.801-1.181 1.633-1.721 2.487-0.414 0.627-0.801 1.254-1.179 1.909-0.506 0.879-0.954 1.781-1.394 2.708-0.316 0.652-0.643 1.329-0.915 2.009-0.401 0.978-0.728 1.982-1.054 2.988-0.216 0.652-0.449 1.302-0.643 1.982-0.3 1.131-0.498 2.285-0.714 3.437-0.099 0.601-0.251 1.179-0.327 1.781-0.238 1.756-0.377 3.539-0.377 5.347v290.787c0 1.805 0.136 3.587 0.377 5.372 0.077 0.58 0.228 1.179 0.327 1.752 0.213 1.154 0.414 2.309 0.714 3.437 0.192 0.68 0.426 1.334 0.643 1.985 0.324 1.002 0.652 2.007 1.054 3.011 0.275 0.686 0.601 1.336 0.915 1.992 0.441 0.926 0.892 1.826 1.394 2.731 0.377 0.629 0.766 1.254 1.179 1.883 0.538 0.852 1.116 1.683 1.721 2.487 0.449 0.627 0.928 1.206 1.417 1.781 0.643 0.752 1.317 1.506 2.034 2.209 0.54 0.549 1.067 1.101 1.645 1.604 0.741 0.682 1.52 1.334 2.322 1.959 0.601 0.481 1.206 0.956 1.845 1.402 0.238 0.154 0.449 0.355 0.678 0.506l436.183 290.787c6.885 4.591 14.825 6.902 22.755 6.902 7.921 0 15.852-2.312 22.744-6.902l436.183-290.787c0.228-0.147 0.439-0.348 0.68-0.506 0.638-0.446 1.243-0.924 1.859-1.402 0.792-0.627 1.569-1.279 2.322-1.959 0.566-0.498 1.092-1.056 1.629-1.604 0.716-0.704 1.396-1.462 2.048-2.209 0.473-0.576 0.952-1.154 1.402-1.781 0.619-0.806 1.181-1.633 1.735-2.487 0.391-0.629 0.785-1.254 1.164-1.883 0.515-0.905 0.962-1.805 1.396-2.731 0.312-0.655 0.636-1.306 0.915-1.992 0.401-1.002 0.725-2.007 1.056-3.011 0.209-0.652 0.461-1.306 0.636-1.985 0.303-1.131 0.515-2.285 0.716-3.437 0.103-0.576 0.251-1.175 0.336-1.752 0.226-1.786 0.369-3.564 0.369-5.372v-290.787c0-1.805-0.141-3.587-0.369-5.344zM553.014 152.463l321.324 214.199-143.525 96.017-177.798-118.934v-191.281zM470.988 152.463v191.281l-177.788 118.934-143.538-96.017 321.326-214.199zM116.831 443.377l102.607 68.627-102.607 68.633v-137.262zM470.988 871.551l-321.324-214.203 143.538-95.991 177.788 118.914v191.278zM512.002 609.029l-145.052-97.023 145.052-97.020 145.044 97.020-145.044 97.023zM553.014 871.551v-191.278l177.798-118.914 143.525 95.991-321.324 214.203zM907.169 580.637l-102.591-68.633 102.591-68.627v137.262z"></path>
</symbol>
</defs>
</svg>
