<?xml version="1.0" encoding="utf-8"?>
<!-- Generated by IcoMoon.io -->
<!DOCTYPE svg PUBLIC "-//W3C//DTD SVG 1.1//EN" "http://www.w3.org/Graphics/SVG/1.1/DTD/svg11.dtd">
<svg version="1.1" xmlns="http://www.w3.org/2000/svg" xmlns:xlink="http://www.w3.org/1999/xlink" width="32" height="32" viewBox="0 0 32 32">
<path fill="#000000" d="M30.901 11.29c-0.003-0.019-0.007-0.037-0.011-0.056-0.006-0.036-0.013-0.072-0.022-0.107-0.006-0.021-0.013-0.042-0.020-0.062-0.010-0.031-0.020-0.063-0.033-0.093-0.009-0.021-0.019-0.042-0.029-0.063-0.014-0.029-0.028-0.057-0.044-0.085-0.012-0.020-0.024-0.040-0.036-0.060-0.017-0.027-0.035-0.053-0.054-0.078-0.014-0.019-0.029-0.038-0.044-0.056-0.020-0.024-0.042-0.047-0.064-0.069-0.017-0.017-0.033-0.034-0.051-0.050-0.024-0.021-0.048-0.042-0.073-0.061-0.019-0.015-0.038-0.030-0.058-0.044-0.008-0.005-0.014-0.011-0.021-0.016l-13.631-9.087c-0.431-0.287-0.991-0.287-1.422 0l-13.631 9.087c-0.007 0.005-0.014 0.011-0.021 0.016-0.020 0.014-0.039 0.029-0.058 0.044-0.025 0.020-0.049 0.040-0.073 0.061-0.018 0.016-0.034 0.033-0.051 0.050-0.022 0.022-0.044 0.046-0.064 0.069-0.015 0.018-0.030 0.037-0.044 0.056-0.019 0.025-0.037 0.051-0.054 0.078-0.013 0.020-0.025 0.039-0.037 0.060-0.016 0.027-0.030 0.056-0.044 0.085-0.010 0.020-0.020 0.042-0.029 0.063-0.013 0.031-0.023 0.062-0.033 0.093-0.007 0.020-0.014 0.041-0.020 0.062-0.009 0.035-0.016 0.071-0.022 0.107-0.003 0.019-0.008 0.037-0.010 0.056-0.007 0.055-0.012 0.111-0.012 0.167v9.087c0 0.056 0.004 0.112 0.012 0.168 0.002 0.018 0.007 0.037 0.010 0.055 0.007 0.036 0.013 0.072 0.022 0.107 0.006 0.021 0.013 0.042 0.020 0.062 0.010 0.031 0.020 0.063 0.033 0.094 0.009 0.021 0.019 0.042 0.029 0.062 0.014 0.029 0.028 0.057 0.044 0.085 0.012 0.020 0.024 0.039 0.037 0.059 0.017 0.027 0.035 0.053 0.054 0.078 0.014 0.020 0.029 0.038 0.044 0.056 0.020 0.023 0.041 0.047 0.064 0.069 0.017 0.017 0.033 0.034 0.051 0.050 0.023 0.021 0.048 0.042 0.073 0.061 0.019 0.015 0.038 0.030 0.058 0.044 0.007 0.005 0.014 0.011 0.021 0.016l13.631 9.087c0.215 0.143 0.463 0.216 0.711 0.216s0.495-0.072 0.711-0.216l13.631-9.087c0.007-0.005 0.014-0.011 0.021-0.016 0.020-0.014 0.039-0.029 0.058-0.044 0.025-0.020 0.049-0.040 0.073-0.061 0.018-0.016 0.034-0.033 0.051-0.050 0.022-0.022 0.044-0.046 0.064-0.069 0.015-0.018 0.030-0.036 0.044-0.056 0.019-0.025 0.037-0.051 0.054-0.078 0.012-0.020 0.025-0.039 0.036-0.059 0.016-0.028 0.030-0.056 0.044-0.085 0.010-0.020 0.020-0.041 0.029-0.062 0.013-0.031 0.023-0.063 0.033-0.094 0.007-0.020 0.014-0.041 0.020-0.062 0.009-0.035 0.016-0.071 0.022-0.107 0.003-0.018 0.008-0.037 0.011-0.055 0.007-0.056 0.012-0.111 0.012-0.168v-9.087c0-0.056-0.004-0.112-0.012-0.167zM17.282 4.764l10.041 6.694-4.485 3.001-5.556-3.717v-5.978zM14.718 4.764v5.978l-5.556 3.717-4.486-3.001 10.041-6.694zM3.651 13.856l3.206 2.145-3.206 2.145v-4.289zM14.718 27.236l-10.041-6.694 4.486-3 5.556 3.716v5.977zM16 19.032l-4.533-3.032 4.533-3.032 4.533 3.032-4.533 3.032zM17.282 27.236v-5.977l5.556-3.716 4.485 3-10.041 6.694zM28.349 18.145l-3.206-2.145 3.206-2.145v4.289z"></path>
</svg>
